<svg xmlns="http://www.w3.org/2000/svg" viewBox="0 0 100 100" shape-rendering="crispEdges"><rect width="100" height="100" fill="none"/><path fill="#ffcf56" d="M38 31h24l-5-18H43z"/><rect x="34" y="27" width="32" height="5" fill="#ff6b9d"/><path fill="#ff6b9d" d="M25 32h50v43H25zM18 42h64v25H18zM32 75h9v8h-9zM59 75h9v8h-9z"/><g fill="#fff"><rect x="33" y="43" width="9" height="12"/><rect x="58" y="43" width="9" height="12"/></g><g fill="#22223b"><rect x="36" y="47" width="4" height="7"/><rect x="61" y="47" width="4" height="7"/><path d="M43 61h4v3h6v-3h4v4h-4v3h-6v-3h-4z"/></g><path fill="#ffcf56" d="M12 38h5v5h-5zM83 35h5v5h-5zM10 70h5v5h-5z"/><path fill="#ffcf56" d="M38 23h24l-5-18H43z"/><rect x="34" y="21" width="32" height="5" fill="#ff8c42"/></svg>
